<?xml version="1.0" encoding="UTF-8"?>
<svg version="1.1" xmlns="http://www.w3.org/2000/svg" width="240" height="240">
<path d="M0 0 C79.2 0 158.4 0 240 0 C240 79.2 240 158.4 240 240 C160.8 240 81.6 240 0 240 C0 160.8 0 81.6 0 0 Z " fill="#FEFEFE" transform="translate(0,0)"/>
<path d="M0 0 C5.59777476 0.93296246 8.06592841 2.01338936 12.25 5.375 C13.09643066 6.04656128 13.09643066 6.04656128 13.95996094 6.73168945 C30.93137064 20.53475091 41.79317182 39.32232285 45 61 C45.25463666 64.46470138 45.28790895 67.90215457 45.25 71.375 C45.24178223 72.29619629 45.23356445 73.21739258 45.22509766 74.16650391 C44.85529731 96.73227793 35.71540501 116.86937192 20 133 C8.8105387 143.42583511 -4.61614957 151.85823639 -20 154 C-18.45957322 156.16755705 -16.9176018 158.33399171 -15.375 160.5 C-14.9207666 161.1398584 -14.4665332 161.7797168 -13.99853516 162.43896484 C-11.10080405 166.5069137 -8.12669176 170.48619404 -4.9609375 174.3515625 C-4 176 -4 176 -4 180 C-25.12 180 -46.24 180 -68 180 C-67.1237547 175.61877351 -66.77868107 174.24296524 -64.34765625 170.8984375 C-63.81849609 170.16109375 -63.28933594 169.42375 -62.74414062 168.6640625 C-62.18919922 167.90867188 -61.63425781 167.15328125 -61.0625 166.375 C-59.96995522 164.86204911 -58.87750356 163.34903097 -57.78515625 161.8359375 C-57.29926025 161.17126465 -56.81336426 160.5065918 -56.31274414 159.82177734 C-55.17271939 158.23969353 -54.08168609 156.62252914 -53 155 C-53.85980469 154.87109375 -54.71960938 154.7421875 -55.60546875 154.609375 C-64.75437824 152.96699309 -73.13750148 149.95723421 -81 145 C-80.484897 139.68544522 -78.63835295 136.09376879 -75.9375 131.625 C-75.56044922 130.98433594 -75.18339844 130.34367188 -74.79492188 129.68359375 C-73.87160383 128.11745934 -72.93694607 126.55801966 -72 125 C-72.58265625 124.731875 -73.1653125 124.46375 -73.765625 124.1875 C-87.15923456 117.069218 -95.39932027 102.21811774 -99.87890625 88.26171875 C-103.93497108 70.02360905 -100.77814324 52.58801527 -90.94140625 36.78125 C-81.07593572 22.64802059 -66.92448526 12.84887048 -50 9 C-46.49586625 8.67672447 -43.01770857 8.61982645 -39.5 8.625 C-38.53328369 8.62443604 -37.56656738 8.62387207 -36.57055664 8.62329102 C-28.13037643 8.75148032 -20.99422472 10.40474321 -13 13 C-11.35 13.33 -9.7 13.66 -8 14 C-5.36 9.38 -2.72 4.76 0 0 Z " fill="#0F0F0F" transform="translate(148,30)"/>
<path d="M0 0 C4.49864104 1.43363286 7.50820406 3.93128886 10.875 7.125 C11.66825684 7.87076294 11.66825684 7.87076294 12.47753906 8.6315918 C13.99755607 10.07542156 15.50220258 11.53316616 17 13 C17.67804688 13.66386719 18.35609375 14.32773437 19.0546875 15.01171875 C34.84731579 31.78683774 38.84176896 52.65074188 38.33984375 74.80078125 C37.62039289 91.91654293 29.49200233 108.44055872 18 121 C17.40960938 121.68191406 16.81921875 122.36382812 16.2109375 123.06640625 C3.9339499 136.41436511 -14.64013323 145.22156069 -32.62060547 146.1328125 C-49.16046508 146.79253766 -62.9512862 145.39235064 -78 138 C-76.62712658 134.30123909 -74.93644547 131.0485524 -72.875 127.6875 C-72.06675781 126.36298828 -72.06675781 126.36298828 -71.2421875 125.01171875 C-70.83226563 124.34785156 -70.42234375 123.68398437 -70 123 C-69.16597656 123.33773437 -68.33195312 123.67546875 -67.47265625 124.0234375 C-49.09508633 131.30710209 -32.70282989 131.95995161 -13.875 124.875 C2.74933367 117.47163007 13.43192399 104.56681679 20 88 C25.25725342 72.03482907 24.45437074 55.41739723 17.71484375 40.07421875 C12.05289043 28.92379815 4.05112858 20.32326487 -6 13 C-4.48525928 8.18285158 -2.58417449 4.30695748 0 0 Z " fill="#F9F9F9" transform="translate(150,35)"/>
<path d="M0 0 C7.73616422 1.71742328 11.53077456 6.89680259 15.85473633 13.16748047 C19.6640625 19.16697487 19.6640625 19.16697487 19.6640625 21.75 C3.1640625 21.75 -13.3359375 21.75 -30.3359375 21.75 C-29.6759375 20.43 -29.0159375 19.11 -28.3359375 17.75 C-28.04823486 17.11545898 -27.76053223 16.48091797 -27.46411133 15.82714844 C-21.49533072 3.07645357 -14.29525004 -1.55078977 0 0 Z " fill="#F7F7F7" transform="translate(117.3359375,184.25)"/>
<path d="M0 0 C3.13236146 1.20347373 6.07245926 2.50465161 8.98828125 4.1640625 C9.69404297 4.56367187 10.39980469 4.96328125 11.12695312 5.375 C11.84818359 5.7875 12.56941406 6.2 13.3125 6.625 C14.05306641 7.04523438 14.79363281 7.46546875 15.55664062 7.8984375 C17.37269011 8.92948495 19.18656533 9.96436046 21 11 C18.65092548 16.07979363 16.15678443 20.39829223 12.5 24.6875 C11.7471875 25.57824219 10.994375 26.46898437 10.21875 27.38671875 C9.4865625 28.24910156 8.754375 29.11148438 8 30 C6.6610823 31.66218379 5.3259702 33.32746941 4 35 C-0.78642607 34.4253379 -4.53788787 33.01754357 -8.875 30.9375 C-10.02742188 30.38964844 -11.17984375 29.84179688 -12.3671875 29.27734375 C-13.23601562 28.85582031 -14.10484375 28.43429688 -15 28 C-13.60582632 24.29102741 -11.92181521 20.92161688 -9.9609375 17.48046875 C-9.09082031 15.9480957 -9.09082031 15.9480957 -8.203125 14.38476562 C-7.59984375 13.32966797 -6.9965625 12.27457031 -6.375 11.1875 C-5.76398438 10.11306641 -5.15296875 9.03863281 -4.5234375 7.93164062 C-3.01844115 5.28613924 -1.51054209 2.6423375 0 0 Z " fill="#F8F8F8" transform="translate(110,105)"/>
<path d="M0 0 C4.35938199 0.53316183 6.8354531 2.03063032 10.25 4.75 C11.55710938 5.76320313 11.55710938 5.76320313 12.890625 6.796875 C15.34236153 9.3575776 15.64794 10.52568171 16 14 C15.41088867 16.34008789 15.41088867 16.34008789 14.41796875 18.72265625 C14.06283203 19.59083984 13.70769531 20.45902344 13.34179688 21.35351562 C12.96087891 22.24748047 12.57996094 23.14144531 12.1875 24.0625 C11.81818359 24.96033203 11.44886719 25.85816406 11.06835938 26.78320312 C9.49243933 30.58861149 7.87618545 34.33179345 6 38 C0.82064939 36.53171057 -3.34373412 34.18508737 -7.875 31.375 C-8.56335938 30.95476562 -9.25171875 30.53453125 -9.9609375 30.1015625 C-11.64391658 29.07307528 -13.32242532 28.037279 -15 27 C-10.55241339 17.63390584 -5.42481324 8.82436288 0 0 Z " fill="#F9F9F9" transform="translate(128,74)"/>
<path d="M0 0 C6.46712188 1.16194152 12.09622349 3.1248748 18 6 C17.41418525 9.85819315 16.2760266 12.64995249 14.3125 16.01171875 C13.77882813 16.93404297 13.24515625 17.85636719 12.6953125 18.80664062 C12.13585937 19.75732422 11.57640625 20.70800781 11 21.6875 C9.8956065 23.58710772 8.79142895 25.48684102 7.6875 27.38671875 C7.19636719 28.22420654 6.70523438 29.06169434 6.19921875 29.92456055 C5.42692727 31.26113422 4.69034242 32.61931515 4 34 C-1.10454793 33.4462522 -4.96575557 30.97407204 -9.3125 28.4375 C-10.05306641 28.01275391 -10.79363281 27.58800781 -11.55664062 27.15039062 C-13.37468118 26.10648347 -15.18783748 25.05407808 -17 24 C-13.84644514 14.84127153 -6.35008395 7.16419728 0 0 Z " fill="#F8F8F8" transform="translate(106,64)"/>
<path d="M0 0 C4.91441412 1.43652105 9.00238358 3.54159615 13.375 6.125 C14.01566406 6.49753906 14.65632813 6.87007813 15.31640625 7.25390625 C16.88048477 8.16434002 18.44065534 9.08148191 20 10 C18.88972554 15.76108141 15.42873405 20.65089834 12.5625 25.6875 C11.96373047 26.75806641 11.36496094 27.82863281 10.74804688 28.93164062 C10.17248047 29.94806641 9.59691406 30.96449219 9.00390625 32.01171875 C8.47611572 32.94459717 7.9483252 33.87747559 7.40454102 34.83862305 C6 37 6 37 4 38 C2.41606974 36.8966898 0.83288132 35.79231456 -0.75 34.6875 C-2.07257813 33.76517578 -2.07257813 33.76517578 -3.421875 32.82421875 C-5.64432169 31.25166935 -7.83192994 29.64631488 -10 28 C-8.81931242 17.97620342 -4.47259956 8.94519911 0 0 Z " fill="#F8F8F8" transform="translate(86,92)"/>
<path d="M0 0 C8.25359527 3.02507338 14.11178068 16.34044186 17.71875 23.875 C19.99808424 29.43435181 21.58034506 35.16849432 23 41 C23.1959375 41.7528125 23.391875 42.505625 23.59375 43.28125 C26.83782678 64.99161002 21.92011833 86.64680193 10 105 C7.12149707 108.77655804 4.11722467 112.41865521 1 116 C-0.65 115.34 -2.3 114.68 -4 114 C-3.47212891 113.30777344 -3.47212891 113.30777344 -2.93359375 112.6015625 C-1.27548613 110.41095557 0.36253637 108.20607737 2 106 C2.57621094 105.24074219 3.15242187 104.48148437 3.74609375 103.69921875 C13.92500139 89.8477431 18.59800203 75.18043974 18.375 58.0625 C18.36339844 56.9173291 18.35179687 55.7721582 18.33984375 54.59228516 C17.9858092 36.33607706 11.92540772 21.42300495 0.46875 7.234375 C-1 5 -1 5 -1 1 C-0.67 0.67 -0.34 0.34 0 0 Z " fill="#111111" transform="translate(169,45)"/>
<path d="M0 0 C7.76161629 7.05601481 15.38376119 16.87035098 16.30859375 27.5703125 C16.47811406 37.28282891 16.47811406 37.28282891 14 41 C10.17564807 38.93788877 6.36787916 36.8468874 2.5625 34.75 C1.47388672 34.16347656 0.38527344 33.57695313 -0.73632812 32.97265625 C-1.77080078 32.39902344 -2.80527344 31.82539062 -3.87109375 31.234375 C-4.82943115 30.71069336 -5.78776855 30.18701172 -6.77514648 29.64746094 C-9 28 -9 28 -9.90356445 26.0234375 C-10.07370338 22.4535351 -8.24646047 19.40723816 -6.75 16.25 C-6.11764476 14.88119812 -5.48743177 13.5114045 -4.859375 12.140625 C-4.54935547 11.46580078 -4.23933594 10.79097656 -3.91992188 10.09570312 C-2.46542204 6.78216104 -1.2352472 3.40074229 0 0 Z " fill="#F7F7F7" transform="translate(148,88)"/>
<path d="M0 0 C3.44311058 1.31293711 6.64211396 2.8143342 9.86328125 4.6015625 C11.19262695 5.33632812 11.19262695 5.33632812 12.54882812 6.0859375 C13.46083984 6.59382813 14.37285156 7.10171875 15.3125 7.625 C16.24384766 8.140625 17.17519531 8.65625 18.13476562 9.1875 C20.42463469 10.45573517 22.71297715 11.72664162 25 13 C22.60998438 18.13371069 19.3600896 20.66749133 14.0625 22.60546875 C8.40179431 24.42897105 2.9597979 24.37012319 -2.9375 24.25 C-4.49694336 24.24226563 -4.49694336 24.24226563 -6.08789062 24.234375 C-13.68951412 24.15524294 -13.68951412 24.15524294 -16 23 C-14.36726722 19.34163083 -12.11352375 16.36375631 -9.6875 13.1875 C-6.38481718 8.84057193 -3.14438255 4.46299459 0 0 Z " fill="#F8F8F8" transform="translate(135,119)"/>
<path d="M0 0 C0.89332031 0.00064453 1.78664063 0.00128906 2.70703125 0.00195312 C6.61398027 0.02823305 10.09806829 0.10968217 13.875 1.1875 C12.18241956 5.08614034 9.61511452 8.25357958 7 11.5625 C3.76812785 15.66707353 0.72177159 19.80479584 -2.125 24.1875 C-19.0179385 15.925541 -19.0179385 15.925541 -26.125 11.1875 C-24.75240684 7.89607763 -23.42239691 6.39330047 -20.375 4.5625 C-19.72015625 4.15773438 -19.0653125 3.75296875 -18.390625 3.3359375 C-12.18587923 0.19077327 -6.82141369 -0.09432814 0 0 Z " fill="#F8F8F8" transform="translate(87.125,60.8125)"/>
<path d="M0 0 C5.44484354 1.53706109 9.97891223 4.08185096 14.8125 6.9375 C15.58787109 7.38029297 16.36324219 7.82308594 17.16210938 8.27929688 C18.2671582 8.92801758 18.2671582 8.92801758 19.39453125 9.58984375 C20.06331299 9.98034912 20.73209473 10.37085449 21.42114258 10.77319336 C23 12 23 12 24 15 C23.00132639 17.64061051 21.94411421 20.13771494 20.75 22.6875 C20.11763978 24.06542073 19.48742683 25.44432894 18.859375 26.82421875 C18.54935547 27.50532715 18.23933594 28.18643555 17.91992188 28.88818359 C16.47301682 32.20976765 15.2379737 35.59557233 14 39 C9.45413817 34.85524362 6.16953357 30.26229409 3 25 C2.58105469 24.32195312 2.16210938 23.64390625 1.73046875 22.9453125 C-1.95066283 16.0513205 -1.59282731 8.61928865 -1 1 C-0.67 0.67 -0.34 0.34 0 0 Z " fill="#F8F8F8" transform="translate(58,76)"/>
<path d="M0 0 C0.82371094 0.12761719 1.64742187 0.25523437 2.49609375 0.38671875 C7.7520577 1.02529381 12.89705989 1.20084088 18.18359375 1.19921875 C19.31776733 1.20562378 19.31776733 1.20562378 20.47485352 1.2121582 C25.06162853 1.20158612 29.40857146 0.82838913 33.93359375 0.07421875 C25.248142 9.5226915 11.61454954 14.71257391 -1.08984375 15.31640625 C-7.97696329 15.49571681 -14.47615538 15.27096904 -21.06640625 13.07421875 C-16.94084233 9.81353208 -12.41453196 7.3693304 -7.84375 4.79296875 C-5.09981848 3.26998227 -5.09981848 3.26998227 -3.48046875 1.3359375 C-2.06640625 0.07421875 -2.06640625 0.07421875 0 0 Z " fill="#F5F5F5" transform="translate(115.06640625,145.92578125)"/>
<path d="M0 0 C10.08392688 8.00986466 16.95841225 19.16155396 19 32 C19.41211569 38.99683753 19.25812646 45.9998089 19 53 C16.94483184 50.94483184 16.37072811 49.71046447 15.3125 47.0625 C11.16706792 37.50128563 11.16706792 37.50128563 4.44970703 29.78613281 C1.5245988 27.46160071 0.1616225 25.94700937 -0.48095703 22.18188477 C-0.59030272 18.8107319 -0.52331918 15.4945075 -0.375 12.125 C-0.34792969 10.9596875 -0.32085937 9.794375 -0.29296875 8.59375 C-0.22248125 5.72725828 -0.12399461 2.86459345 0 0 Z " fill="#F6F6F6" transform="translate(150,59)"/>
<path d="M0 0 C-3.96010646 3.07072085 -8.18406046 5.6471256 -12.44140625 8.28125 C-14.98132299 9.82780224 -14.98132299 9.82780224 -16.51953125 11.73828125 C-18 13 -18 13 -20.3203125 13.07421875 C-21.24585937 12.94660156 -22.17140625 12.81898437 -23.125 12.6875 C-28.40302871 12.10176755 -33.57164593 11.87327402 -38.875 11.875 C-39.94451904 11.86859497 -39.94451904 11.86859497 -41.03564453 11.86206055 C-45.12774438 11.87213961 -48.98598659 12.20726381 -53 13 C-40.19805308 -0.95268372 -17.78012501 -5.80575511 0 0 Z " fill="#F3F3F3" transform="translate(125,45)"/>
<path d="M0 0 C2.38487037 2.38487037 2.96103732 4.34183553 4.125 7.5 C6.85421966 14.24994505 10.81527613 20.67881087 16.59838867 25.26855469 C18.61696104 27.7621473 18.3412837 29.58903727 18.29296875 32.76171875 C18.28330078 33.87998047 18.27363281 34.99824219 18.26367188 36.15039062 C18.23853516 37.31763672 18.21339844 38.48488281 18.1875 39.6875 C18.16719727 41.45577148 18.16719727 41.45577148 18.14648438 43.25976562 C18.11109326 46.17363411 18.06171809 49.08658945 18 52 C7.97335121 44.07593876 1.61605602 32.75373937 0 20 C-0.11472319 16.54037876 -0.09459212 13.08601218 -0.0625 9.625 C-0.05798828 8.69816406 -0.05347656 7.77132812 -0.04882812 6.81640625 C-0.03711574 4.54420291 -0.02071372 2.27213612 0 0 Z " fill="#F6F6F6" transform="translate(52,92)"/>
<path d="M0 0 C3.84944912 1.25304649 7.62350633 2.60412419 11.375 4.125 C12.24898437 4.47820312 13.12296875 4.83140625 14.0234375 5.1953125 C14.67570312 5.46085938 15.32796875 5.72640625 16 6 C14.53426802 9.78306242 12.66597502 11.1328299 9.1875 13.125 C8.33542969 13.62257812 7.48335937 14.12015625 6.60546875 14.6328125 C1.45601294 17.33492574 -2.12783239 18.23028108 -8 18 C-8 13.27740792 -6.35101802 10.65777319 -4 6.75 C-3.6184375 6.1003125 -3.236875 5.450625 -2.84375 4.78125 C-1.90356117 3.18292899 -0.95279986 1.59083547 0 0 Z " fill="#F4F4F4" transform="translate(92,137)"/>
<path d="M0 0 C-1.52856944 4.27194933 -3.71598945 7.99394132 -6.125 11.8125 C-7.40375 13.854375 -8.6825 15.89625 -10 18 C-14.62 16.02 -19.24 14.04 -24 12 C-24 11.01 -24 10.02 -24 9 C-17.14643357 2.90794095 -9.12522394 -0.5703265 0 0 Z " fill="#F3F3F3" transform="translate(137,49)"/>
<path d="M0 0 C3 1 3 1 4.67578125 3.4453125 C6.39418152 8.05812739 6.330552 12.00389594 6.1875 16.875 C6.17396484 17.75414063 6.16042969 18.63328125 6.14648438 19.5390625 C6.11136623 21.69297552 6.05756694 23.84657004 6 26 C2.67883647 24.38880357 -0.23739 22.51553868 -3.25 20.375 C-4.14203125 19.74335937 -5.0340625 19.11171875 -5.953125 18.4609375 C-6.62859375 17.97882813 -7.3040625 17.49671875 -8 17 C-7.41734728 12.57676318 -5.73233789 9.4844136 -3.4375 5.6875 C-2.79683594 4.61886719 -2.15617188 3.55023438 -1.49609375 2.44921875 C-1.00238281 1.64097656 -0.50867188 0.83273438 0 0 Z " fill="#F2F2F2" transform="translate(140,53)"/>
<path d="M0 0 C3.83663072 1.34929464 6.65172569 3.07751025 9.8125 5.625 C10.99779297 6.57246094 10.99779297 6.57246094 12.20703125 7.5390625 C12.79871094 8.02117187 13.39039062 8.50328125 14 9 C12.51481201 13.04301175 10.57122002 16.61146256 8.375 20.3125 C7.74335937 21.38113281 7.11171875 22.44976562 6.4609375 23.55078125 C5.97882813 24.35902344 5.49671875 25.16726562 5 26 C1.85990569 23.43083193 0.95116883 20.90432158 0 17 C-0.21888568 14.03458703 -0.19046874 11.09627339 -0.125 8.125 C-0.11597656 7.34125 -0.10695313 6.5575 -0.09765625 5.75 C-0.07428063 3.83319945 -0.03841653 1.91655809 0 0 Z " fill="#F3F3F3" transform="translate(74,125)"/>
<path d="M0 0 C1.98 0.66 3.96 1.32 6 2 C5.0409375 2.433125 5.0409375 2.433125 4.0625 2.875 C1.84793921 3.82823451 1.84793921 3.82823451 1 6 C0.01 5.01 -0.98 4.02 -2 3 C-1.34 2.01 -0.68 1.02 0 0 Z " fill="#1A1A1A" transform="translate(73,79)"/>
</svg>
