<?xml version="1.0" encoding="UTF-8"?>
<svg version="1.1" xmlns="http://www.w3.org/2000/svg" width="240" height="240">
<path d="M0 0 C79.2 0 158.4 0 240 0 C240 79.2 240 158.4 240 240 C160.8 240 81.6 240 0 240 C0 160.8 0 81.6 0 0 Z " fill="#0C0C0C" transform="translate(0,0)"/>
<path d="M0 0 C79.2 0 158.4 0 240 0 C240 79.2 240 158.4 240 240 C160.8 240 81.6 240 0 240 C0 160.8 0 81.6 0 0 Z M108.1328125 34.20703125 C107.27022324 34.64325302 106.40763397 35.07947479 105.51890564 35.52891541 C103.67390424 36.46322308 101.83116726 37.4020134 99.99050903 38.34484863 C96.14367346 40.3151141 92.28602872 42.2637363 88.42866516 44.21328735 C86.52633402 45.17491377 84.62454577 46.13761494 82.72331238 47.10140991 C76.20788903 50.4021465 69.66668621 53.62994699 63.0625 56.75 C62.23266602 57.14437256 61.40283203 57.53874512 60.54785156 57.94506836 C57.02130241 59.62054365 53.49338895 61.2931355 49.9644165 62.96350098 C45.22995196 65.20565648 40.50144776 67.45982972 35.77828979 69.72570801 C34.19237605 70.48411757 32.60461597 71.23867984 31.0149231 71.98913574 C28.78376991 73.0428664 26.55937505 74.10979197 24.3359375 75.1796875 C23.66927567 75.49076447 23.00261383 75.80184143 22.31575012 76.12234497 C18.10902196 78.16799588 15.00801297 80.40778324 12 84 C11.34377763 88.08316143 11.62218323 90.22793965 13.4375 93.9375 C16.35833128 96.28841298 17.06559225 96.23567548 20.66015625 96.12890625 C21.47234619 96.11029541 22.28453613 96.09168457 23.12133789 96.07250977 C23.74129639 96.04858154 24.36125488 96.02465332 25 96 C24.99861731 96.87217494 24.99861731 96.87217494 24.99720669 97.76196957 C24.9751506 111.89074246 24.95858803 126.01951278 24.94818783 140.14829922 C24.94302507 146.98078974 24.93598277 153.81326879 24.92456055 160.64575195 C24.91355293 167.23335305 24.90772377 173.82094531 24.90512276 180.40855598 C24.903268 182.92808279 24.89964643 185.44760891 24.89426994 187.96713066 C24.88706324 191.48257765 24.8860089 194.99797461 24.88647461 198.51342773 C24.88287933 199.56646591 24.87928406 200.61950409 24.87557983 201.70445251 C24.8769545 202.65662659 24.87832916 203.60880066 24.87974548 204.58982849 C24.87836279 205.83839709 24.87836279 205.83839709 24.87695217 207.11218929 C24.79237786 209.01225044 24.79237786 209.01225044 26 210 C28.42619594 210.09989636 30.82398318 210.13442062 33.25073242 210.12698364 C34.01858912 210.12854363 34.78644583 210.13010362 35.57757092 210.13171089 C38.17022261 210.13572388 40.76281654 210.1325301 43.35546875 210.12939453 C45.20618728 210.13074844 47.05690554 210.13252831 48.90762329 210.13470459 C53.94879944 210.13928016 58.98995522 210.13748886 64.03113174 210.1343255 C69.29443672 210.13180254 74.55773989 210.13413926 79.82104492 210.13571167 C88.6616243 210.13753355 97.50219533 210.13512657 106.34277344 210.13037109 C116.57938016 210.12492844 126.81596697 210.12669108 137.0525732 210.1321975 C145.82451263 210.1367281 154.59644605 210.13737944 163.36838627 210.13475883 C168.61492807 210.13319576 173.8614605 210.1330031 179.10800171 210.13629532 C184.03924878 210.13917326 188.97047005 210.13719976 193.90171432 210.13140106 C195.71703422 210.13007305 197.53235627 210.13046827 199.34767532 210.13266373 C201.81490257 210.13537363 204.28204577 210.13199609 206.74926758 210.12698364 C207.4771709 210.12921436 208.20507421 210.13144509 208.95503521 210.13374341 C212.26032547 210.40759363 212.26032547 210.40759363 215 209 C215.09565123 207.5325104 215.12188309 206.06043116 215.12025452 204.58982849 C215.12162918 203.63765442 215.12300385 202.68548035 215.12442017 201.70445251 C215.12082489 200.65141434 215.11722961 199.59837616 215.11352539 198.51342773 C215.11374443 196.85997849 215.11374443 196.85997849 215.1139679 195.17312622 C215.11326821 191.50992908 215.10547324 187.84678206 215.09765625 184.18359375 C215.09579227 181.65153532 215.09436827 179.11947652 215.09336853 176.5874176 C215.08993346 170.59151751 215.08204269 164.59563911 215.07201904 158.59974772 C215.06085677 151.77518942 215.05534717 144.95063028 215.05032361 138.12606514 C215.03986004 124.08403336 215.0222613 110.04201767 215 96 C215.92993774 96.03589233 215.92993774 96.03589233 216.87866211 96.07250977 C217.69085205 96.09112061 218.50304199 96.10973145 219.33984375 96.12890625 C220.54821899 96.16479858 220.54821899 96.16479858 221.78100586 96.20141602 C224.25670464 96.18328242 224.25670464 96.18328242 226.5625 93.9375 C228.37781677 90.22793965 228.65622237 88.08316143 228 84 C224.03176567 79.07875277 219.18510154 76.79878314 213.6015625 74.1484375 C212.6706076 73.69622833 211.73965271 73.24401917 210.78048706 72.77810669 C207.73326431 71.30065677 204.67926695 69.83782436 201.625 68.375 C199.50797948 67.35191249 197.39144759 66.32781331 195.27539062 65.30273438 C190.95707885 63.21226159 186.63627485 61.1270771 182.31347656 59.04589844 C176.44687859 56.21918556 170.59204808 53.36897698 164.7421875 50.5078125 C163.86567535 50.07931 162.98916321 49.6508075 162.08609009 49.20932007 C160.3774083 48.37392838 158.66875875 47.53847077 156.96014404 46.70294189 C150.99929626 43.7882534 145.03686381 40.87742757 139.05957031 37.99658203 C137.66245562 37.32054811 136.26732803 36.64039504 134.87402344 35.95654297 C132.82647478 34.95166618 130.77336519 33.95908036 128.71875 32.96875 C127.54248047 32.39576172 126.36621094 31.82277344 125.15429688 31.23242188 C118.291209 28.55093058 114.32759864 31.00011834 108.1328125 34.20703125 Z " fill="#FDFDFD" transform="translate(0,0)"/>
<path d="M0 0 C3.25366211 1.29418945 3.25366211 1.29418945 6.77734375 3.11328125 C7.41628571 3.43838684 8.05522766 3.76349243 8.71353149 4.09844971 C10.0819809 4.79632233 11.44768198 5.49960599 12.81082153 6.20779419 C15.69572702 7.70636198 18.59386895 9.17843956 21.49150085 10.65220642 C22.95012365 11.39439984 24.40806166 12.13794061 25.86531067 12.88282776 C31.72014854 15.87316621 37.62325734 18.74242795 43.5625 21.5625 C57.74241592 28.3037715 71.86679005 35.16135002 86 42 C86 79.29 86 116.58 86 155 C80.39 155 74.78 155 69 155 C68.67 118.37 68.34 81.74 68 44 C21.14 43.67 -25.72 43.34 -74 43 C-74.33 79.96 -74.66 116.92 -75 155 C-80.61 155 -86.22 155 -92 155 C-92 117.71 -92 80.42 -92 42 C-75.665 34.08 -75.665 34.08 -59 26 C-51.58469727 22.38060011 -44.1696427 18.76104274 -36.75952148 15.13110352 C-33.71437409 13.63943285 -30.66873925 12.1487607 -27.62304688 10.65820312 C-25.6510147 9.69276342 -23.67900838 8.72727089 -21.70703125 7.76171875 C-20.81345413 7.32429855 -19.91987701 6.88687836 -18.9992218 6.436203 C-18.16521347 6.02759537 -17.33120514 5.61898773 -16.47192383 5.19799805 C-15.6927359 4.81952728 -14.91354797 4.44105652 -14.11074829 4.05111694 C-12.30419246 3.1514827 -10.53198765 2.18342714 -8.76831055 1.20239258 C-5.49148012 -0.22087136 -3.54309183 -0.44405692 0 0 Z " fill="#FAFAFA" transform="translate(123,50)"/>
<path d="M0 0 C44.22 0 88.44 0 134 0 C134 27.06 134 54.12 134 82 C115.85 82 97.7 82 79 82 C78.505 64.675 78.505 64.675 78 47 C72.06 46.67 66.12 46.34 60 46 C59.67 34.78 59.34 23.56 59 12 C44.81 12 30.62 12 16 12 C15.67 23.55 15.34 35.1 15 47 C10.38 47 5.76 47 1 47 C0.67 46.67 0.34 46.34 0 46 C0 30.82 0 15.64 0 0 Z " fill="#F9F9F9" transform="translate(53,123)"/>
<path d="M0 0 C0.74386963 0.38559082 1.48773926 0.77118164 2.25415039 1.16845703 C3.55835938 1.83361328 3.55835938 1.83361328 4.88891602 2.51220703 C5.78416992 2.97884766 6.67942383 3.44548828 7.60180664 3.92626953 C16.11765245 8.31983722 24.7241116 12.48952323 33.37413025 16.61143494 C43.64453038 21.50918527 53.87476444 26.48751927 64.09545898 31.48803711 C67.21749698 33.01478075 70.3412794 34.53791792 73.46508789 36.06103516 C75.47951724 37.04584353 77.49384415 38.03086145 79.50805664 39.01611328 C80.42784302 39.46405746 81.34762939 39.91200165 82.29528809 40.3735199 C87.19162097 42.77401068 91.96364005 45.28638358 96.66430664 48.05126953 C96.33430664 49.37126953 96.00430664 50.69126953 95.66430664 52.05126953 C91.86808971 53.08439126 89.92250273 53.11609365 86.42260742 51.31982422 C85.61546799 50.91439896 84.80832855 50.50897369 83.97673035 50.09126282 C83.11308365 49.63978378 82.24943695 49.18830475 81.35961914 48.72314453 C80.4521846 48.26308517 79.54475006 47.80302582 78.6098175 47.32902527 C75.66316706 45.83212514 72.72652289 44.31658409 69.78930664 42.80126953 C67.76549072 41.77039879 65.74083015 40.74118459 63.71533203 39.71362305 C60.72244411 38.19523763 57.72997213 36.67612156 54.74006653 35.15187073 C47.06435622 31.23957006 39.34069164 27.45533407 31.54589844 23.78540039 C27.13676244 21.70914058 22.74492673 19.60624885 18.37901306 17.44010925 C15.8973415 16.2093224 13.41149684 14.98708264 10.92556763 13.7649231 C9.15206662 12.88860391 7.38452516 12.00025596 5.6171875 11.11157227 C4.53832275 10.58249268 3.45945801 10.05341309 2.34790039 9.50830078 C1.39455811 9.03368408 0.44121582 8.55906738 -0.54101562 8.07006836 C-5.35436533 6.31536334 -8.28035396 6.63140033 -13.04150391 8.52563477 C-14.44109805 9.20829524 -15.8344272 9.90389798 -17.22241211 10.60986328 C-17.98473145 10.98551422 -18.74705078 11.36116516 -19.5324707 11.74819946 C-22.03490232 12.98424347 -24.5288554 14.2364844 -27.02319336 15.48876953 C-28.76907826 16.35451433 -30.51558766 17.21900081 -32.26269531 18.08227539 C-35.85575021 19.85865942 -39.44613444 21.64028507 -43.03491211 23.42529297 C-48.00705422 25.89392983 -52.99514074 28.32830752 -57.99194336 30.74658203 C-58.75375412 31.11532944 -59.51556488 31.48407684 -60.30046082 31.86399841 C-63.27457302 33.30265498 -66.24932502 34.73998442 -69.22427368 36.1769104 C-76.11373531 39.50674746 -82.99111933 42.84532736 -89.78491211 46.36767578 C-90.72052979 46.85034912 -91.65614746 47.33302246 -92.62011719 47.83032227 C-94.27635569 48.69082955 -95.92663795 49.56296411 -97.56884766 50.44995117 C-100.7051978 52.08002081 -102.76918069 53.09982776 -106.34350586 52.79345703 C-107.00092773 52.54853516 -107.65834961 52.30361328 -108.33569336 52.05126953 C-108.33569336 50.40126953 -108.33569336 48.75126953 -108.33569336 47.05126953 C-74.04701688 29.80821732 -74.04701688 29.80821732 -60.85131836 23.60375977 C-55.02146268 20.85037095 -49.23999602 18.01448244 -43.47554016 15.12689209 C-39.56590086 13.16965337 -35.65038725 11.22430304 -31.73483276 9.27893066 C-29.76984724 8.29853355 -27.80766522 7.31249603 -25.84841919 6.32067871 C-23.0790295 4.91948484 -20.30042993 3.53832869 -17.51928711 2.16064453 C-16.26443008 1.51627441 -16.26443008 1.51627441 -14.98422241 0.85888672 C-9.29733582 -1.92594501 -6.02066208 -2.44552031 0 0 Z " fill="#F3F3F3" transform="translate(126.335693359375,37.94873046875)"/>
<path d="M0 0 C44.22 0 88.44 0 134 0 C134 2.31 134 4.62 134 7 C89.78 7 45.56 7 0 7 C0 4.69 0 2.38 0 0 Z " fill="#E6E6E6" transform="translate(53,111)"/>
<path d="M0 0 C2.97 0 5.94 0 9 0 C9.33 3.3 9.66 6.6 10 10 C12.31243792 10.02685412 14.6249627 10.04632841 16.9375 10.0625 C18.86916016 10.07990234 18.86916016 10.07990234 20.83984375 10.09765625 C23.86298403 10.36532549 23.86298403 10.36532549 25 9 C25.23192865 7.48530552 25.41215238 5.96245438 25.5625 4.4375 C25.706875 2.973125 25.85125 1.50875 26 0 C28.97 0 31.94 0 35 0 C35 9.9 35 19.8 35 30 C23.45 30 11.9 30 0 30 C0 20.1 0 10.2 0 0 Z " fill="#F1F1F1" transform="translate(53,175)"/>
<path d="M0 0 C2.64 0 5.28 0 8 0 C8.06058594 0.63808594 8.12117188 1.27617187 8.18359375 1.93359375 C8.26738281 2.75988281 8.35117188 3.58617187 8.4375 4.4375 C8.51871094 5.26121094 8.59992188 6.08492187 8.68359375 6.93359375 C8.78930815 8.98662025 8.78930815 8.98662025 10 10 C12.35313555 10.07271741 14.70833668 10.08370868 17.0625 10.0625 C18.35285156 10.05347656 19.64320312 10.04445312 20.97265625 10.03515625 C21.97167969 10.02355469 22.97070312 10.01195312 24 10 C24.33 6.7 24.66 3.4 25 0 C27.97 0 30.94 0 34 0 C34 9.9 34 19.8 34 30 C22.78 30 11.56 30 0 30 C0 20.1 0 10.2 0 0 Z " fill="#F8F8F8" transform="translate(93,175)"/>
<path d="M0 0 C2.97 0 5.94 0 9 0 C9 3.3 9 6.6 9 10 C16.92 9.505 16.92 9.505 25 9 C25.33 6.03 25.66 3.06 26 0 C28.64 0 31.28 0 34 0 C34 9.57 34 19.14 34 29 C22.78 29 11.56 29 0 29 C0 19.43 0 9.86 0 0 Z " fill="#F8F8F8" transform="translate(73,140)"/>
<path d="M0 0 C43.56 0 87.12 0 132 0 C132 1.98 132 3.96 132 6 C88.44 6 44.88 6 0 6 C0 4.02 0 2.04 0 0 Z " fill="#F9F9F9" transform="translate(54,99)"/>
<path d="M0 0 C4.40617281 2.16303029 7.1644597 4.41114924 9 9 C9.75547167 13.05207534 9.92871533 16.45506161 7.7578125 20.06640625 C2.24782939 26.63178414 2.24782939 26.63178414 -2.05078125 27.3359375 C-7.55363289 27.43097812 -10.71951882 26.78275081 -15 23 C-17.72898842 19.76830319 -18.88980039 17.75762231 -19.5 13.5625 C-18.75473907 8.25251589 -16.91657155 4.74746229 -12.875 1.0625 C-8.54729994 -0.53686742 -4.55432641 -0.656874 0 0 Z " fill="#0F0F0F" transform="translate(125,62)"/>
<path d="M0 0 C4.10703441 0.85563217 5.55401113 2.24378009 8 5.625 C8.62491523 9.58279649 8.61006839 11.63363886 6.5 15.0625 C3.46813683 16.95741448 1.43919544 17.26536692 -2.09375 17.07421875 C-4 16.625 -4 16.625 -6.5 14.5 C-8.27801176 11.09214413 -8.70960213 9.40954468 -8 5.625 C-5.54405875 2.30225596 -4.0743356 0.84881992 0 0 Z " fill="#F5F5F5" transform="translate(120,66.375)"/>
<path d="M0 0 C1.98 0 3.96 0 6 0 C6 1.65 6 3.3 6 5 C4.02 5 2.04 5 0 5 C0 3.35 0 1.7 0 0 Z " fill="#E6E6E6" transform="translate(107,175)"/>
<path d="M0 0 C1.98 0 3.96 0 6 0 C6 1.65 6 3.3 6 5 C4.02 5 2.04 5 0 5 C0 3.35 0 1.7 0 0 Z " fill="#E5E5E5" transform="translate(67,175)"/>
<path d="M0 0 C1.98 0 3.96 0 6 0 C6 1.65 6 3.3 6 5 C4.02 5 2.04 5 0 5 C0 3.35 0 1.7 0 0 Z " fill="#E3E3E3" transform="translate(87,140)"/>
</svg>
