<?xml version="1.0" encoding="UTF-8"?>
<svg version="1.1" xmlns="http://www.w3.org/2000/svg" width="240" height="240">
<path d="M0 0 C79.2 0 158.4 0 240 0 C240 79.2 240 158.4 240 240 C160.8 240 81.6 240 0 240 C0 160.8 0 81.6 0 0 Z " fill="#D7D7D7" transform="translate(0,0)"/>
<path d="M0 0 C20.46 0 40.92 0 62 0 C62 79.2 62 158.4 62 240 C41.21 240 20.42 240 -1 240 C0.98 239.01 0.98 239.01 3 238 C10.26336769 234.27445554 14.39626188 229.81121436 17 222 C17.10116239 220.36346609 17.14622539 218.72318613 17.15821838 217.08357239 C17.17290161 215.56283867 17.17290161 215.56283867 17.18788147 214.01138306 C17.19363693 212.90008026 17.1993924 211.78877747 17.20532227 210.64379883 C17.21522186 209.47293228 17.22512146 208.30206573 17.23532104 207.09571838 C17.26151161 203.88526745 17.28337254 200.67482178 17.30332303 197.4643271 C17.32519211 194.10905931 17.35257629 190.75383669 17.37937927 187.39860535 C17.4292937 181.04510543 17.47423716 174.69158044 17.51740164 168.33803147 C17.5667847 161.10469612 17.62169886 153.87140609 17.67708123 146.63811457 C17.79088208 131.75878528 17.89772525 116.87941331 18 102 C19.134375 101.71125 20.26875 101.4225 21.4375 101.125 C22.613125 100.75375 23.78875 100.3825 25 100 C27.19995978 95.60008044 26.22709926 89.66047579 26.24023438 84.76928711 C26.24994768 82.57432267 26.28097409 80.38029178 26.3125 78.18554688 C26.31902948 76.79167223 26.32428017 75.39779089 26.328125 74.00390625 C26.3374707 72.73361572 26.34681641 71.4633252 26.35644531 70.15454102 C26.24479169 67.0753754 26.24479169 67.0753754 24.79199219 65.12475586 C22.56770599 63.72866778 20.58572167 63.34942185 18 63 C17.99589111 61.68918457 17.99178223 60.37836914 17.98754883 59.02783203 C17.96564065 54.12591183 17.9112303 49.22478103 17.84741211 44.32324219 C17.82433365 42.20906182 17.80986043 40.09476814 17.80444336 37.98046875 C17.79507939 34.92637337 17.75392632 31.87403548 17.70703125 28.8203125 C17.7109639 27.88760529 17.71489655 26.95489807 17.71894836 25.993927 C17.55678995 18.56274029 15.51659413 12.03993691 10.55769348 6.3430481 C7.37990275 3.48861765 4.09391193 2.07221503 0 1 C0 0.67 0 0.34 0 0 Z " fill="#FEFEFE" transform="translate(178,0)"/>
<path d="M0 0 C20.13 0 40.26 0 61 0 C60.01 0.66 59.02 1.32 58 2 C51.87133536 6.17806296 47.41414473 9.75756582 45 17 C44.8535286 18.55266653 44.75305926 20.10995662 44.68359375 21.66796875 C44.62075195 23.00698242 44.62075195 23.00698242 44.55664062 24.37304688 C44.51732422 25.30181641 44.47800781 26.23058594 44.4375 27.1875 C44.37272461 28.59805664 44.37272461 28.59805664 44.30664062 30.03710938 C44.20061335 32.35792854 44.09854971 34.67885325 44 37 C42.865625 37.28875 41.73125 37.5775 40.5625 37.875 C39.386875 38.24625 38.21125 38.6175 37 39 C34.80004022 43.39991956 35.77290074 49.33952421 35.75976562 54.23071289 C35.75005232 56.42567733 35.71902591 58.61970822 35.6875 60.81445312 C35.68097052 62.20832777 35.67571983 63.60220911 35.671875 64.99609375 C35.6625293 66.26638428 35.65318359 67.5366748 35.64355469 68.84545898 C35.73616101 71.95490265 35.73616101 71.95490265 37.35253906 73.89477539 C39.49792582 75.33404123 41.46228601 75.65706568 44 76 C44 76.99 44 77.98 44 79 C42.865625 79.28875 41.73125 79.5775 40.5625 79.875 C39.386875 80.24625 38.21125 80.6175 37 81 C34.80004022 85.39991956 35.77290074 91.33952421 35.75976562 96.23071289 C35.75005232 98.42567733 35.71902591 100.61970822 35.6875 102.81445312 C35.68097052 104.20832777 35.67571983 105.60220911 35.671875 106.99609375 C35.6625293 108.26638428 35.65318359 109.5366748 35.64355469 110.84545898 C35.75520831 113.9246246 35.75520831 113.9246246 37.20800781 115.87524414 C39.41898573 117.26297919 41.44898388 117.5409638 44 118 C44.00546844 119.90227859 44.00546844 119.90227859 44.01104736 121.84298706 C44.04805591 133.81896671 44.10589293 145.79469061 44.18390274 157.77047539 C44.22334101 163.92674673 44.25554759 170.08287582 44.27099609 176.23925781 C44.28618641 182.18518741 44.32067494 188.13072579 44.36830902 194.07648087 C44.38309819 196.3401257 44.39103959 198.60382639 44.39188385 200.86751938 C44.3942626 204.04865537 44.42141659 207.22871818 44.45410156 210.40966797 C44.4490712 211.33684128 44.44404083 212.26401459 44.43885803 213.21928406 C44.55112441 220.32351506 45.86724305 227.49562555 50.74176407 232.94837761 C53.84649174 235.7892474 56.93398932 237.76787555 61 239 C61 239.33 61 239.66 61 240 C40.87 240 20.74 240 0 240 C0 160.8 0 81.6 0 0 Z " fill="#FEFEFE" transform="translate(0,0)"/>
<path d="M0 0 C11.95318045 7.87864232 20.30845405 19.55867711 24.0078125 33.41015625 C26.52016033 47.64117347 23.72865572 61.63798839 16.2109375 73.96875 C14.75944732 75.98185219 13.23219845 77.84673375 11.58984375 79.70703125 C11.00460938 80.38507813 10.419375 81.063125 9.81640625 81.76171875 C0.81896141 91.49364889 -12.01380394 97.11551681 -25.1953125 97.9453125 C-41.61162157 98.37308031 -53.86032438 93.50431838 -66.41015625 82.70703125 C-72.43096137 75.77398293 -76.39071339 68.33750354 -79.41015625 59.70703125 C-79.65636719 59.04445313 -79.90257813 58.381875 -80.15625 57.69921875 C-83.97528785 45.530974 -81.53994606 32.19875881 -76.08984375 20.9921875 C-68.47467145 7.48878089 -56.60118264 -2.52607704 -41.54467773 -6.82568359 C-27.65629883 -9.86609961 -12.0954632 -7.13233196 0 0 Z " fill="#F8F8F8" transform="translate(148.41015625,48.29296875)"/>
<path d="M0 0 C0.97832291 -0.00852997 1.95664581 -0.01705994 2.96461487 -0.02584839 C4.02653549 -0.02494202 5.08845612 -0.02403564 6.18255615 -0.02310181 C7.30999741 -0.02981903 8.43743866 -0.03653625 9.5990448 -0.04345703 C13.32712205 -0.06245804 17.05501942 -0.06636251 20.78314209 -0.06851196 C23.37760492 -0.07493906 25.97206702 -0.08166736 28.56652832 -0.08868408 C34.00707995 -0.10066259 39.44756035 -0.10445008 44.88812256 -0.10317993 C51.15989094 -0.10197997 57.43131438 -0.1230557 63.70299554 -0.15466726 C69.75303859 -0.18406589 75.80289575 -0.19115342 81.85301971 -0.18996048 C84.41897743 -0.1923167 86.98493784 -0.20114131 89.55084991 -0.21662521 C93.14582162 -0.23628521 96.73991313 -0.23044573 100.3348999 -0.21841431 C101.91563545 -0.23527283 101.91563545 -0.23527283 103.52830505 -0.25247192 C110.80110784 -0.1908195 117.33290289 0.90366494 122.87031937 5.9588871 C129.36578969 12.87612716 130.46004534 19.63613449 130.31048584 28.79476929 C130.306241 29.78368668 130.30199615 30.77260406 130.29762268 31.79148865 C130.28091838 34.92958563 130.24328124 38.06702481 130.20501709 41.20492554 C130.1899596 43.34098393 130.17627306 45.47705245 130.16400146 47.61312866 C130.13104202 52.83144956 130.08092547 58.04939053 130.01751709 63.26742554 C129.68751709 61.94742554 129.35751709 60.62742554 129.01751709 59.26742554 C128.35751709 59.26742554 127.69751709 59.26742554 127.01751709 59.26742554 C126.68751709 103.48742554 126.35751709 147.70742554 126.01751709 193.26742554 C125.68751709 193.26742554 125.35751709 193.26742554 125.01751709 193.26742554 C125.01605053 192.50597198 125.01458397 191.74451841 125.01307297 190.9599905 C124.97600358 172.42273056 124.91698711 153.88565905 124.83361435 135.34854794 C124.7938236 126.38408551 124.7614313 117.41971087 124.746521 108.45516968 C124.73350465 100.64066424 124.70654048 92.82635197 124.66290402 85.01195532 C124.64028873 80.87515604 124.62460644 76.73859502 124.62563324 72.60172844 C124.62637982 68.70526276 124.60843031 64.80932376 124.57634926 60.91299438 C124.56785412 59.48562078 124.56609776 58.05818808 124.5717144 56.63080025 C124.66438969 46.22981601 124.66438969 46.22981601 120.01751709 37.26742554 C115.59156144 33.06844197 111.28662023 31.02499939 105.1734314 31 C104.22587479 30.99147003 103.27831818 30.98294006 102.30204773 30.97415161 C101.27438797 30.97505798 100.24672821 30.97596436 99.18792725 30.97689819 C98.09628769 30.97018097 97.00464813 30.96346375 95.87992859 30.95654297 C92.27209926 30.93754881 88.6644558 30.93363809 85.05657959 30.93148804 C82.54700646 30.92506137 80.03743409 30.91833311 77.52786255 30.91131592 C72.26724035 30.8993398 67.00666527 30.89554978 61.74603271 30.89682007 C55.67644126 30.89802118 49.60720557 30.87692159 43.53770411 30.84533274 C37.68628874 30.81597054 31.83501356 30.80884552 25.98353195 30.81003952 C23.49965334 30.8076805 21.01577205 30.79884011 18.53194046 30.78337479 C15.0562927 30.76375954 11.58155875 30.76953612 8.105896 30.78158569 C7.0822847 30.77034668 6.0586734 30.75910767 5.00404358 30.74752808 C-2.01936142 30.8093403 -6.42793239 32.00775926 -11.72467041 36.86508179 C-15.31856079 41.51235384 -16.10661206 44.49450524 -16.14070129 50.2848053 C-16.15049011 51.54263824 -16.16027893 52.80047119 -16.17036438 54.09642029 C-16.17626856 55.49285851 -16.18207901 56.88929712 -16.18780518 58.28573608 C-16.1973839 59.75414302 -16.20739398 61.2225472 -16.21780396 62.69094849 C-16.24485967 66.6802954 -16.26586563 70.66965415 -16.28580594 74.65904212 C-16.30766137 78.82709398 -16.33505223 82.99510931 -16.36186218 87.16313171 C-16.41179505 95.05723094 -16.45673168 102.95135044 -16.49988455 110.84548932 C-16.54925184 119.8321109 -16.60417185 128.81869585 -16.65956414 137.805282 C-16.77339331 156.29262916 -16.88023033 174.7800109 -16.98248291 193.26742554 C-17.31248291 193.26742554 -17.64248291 193.26742554 -17.98248291 193.26742554 C-18.31248291 154.98742554 -18.64248291 116.70742554 -18.98248291 77.26742554 C-19.64248291 77.26742554 -20.30248291 77.26742554 -20.98248291 77.26742554 C-21.47748291 78.25742554 -21.47748291 78.25742554 -21.98248291 79.26742554 C-21.98248291 78.27742554 -21.98248291 77.28742554 -21.98248291 76.26742554 C-23.09623291 76.16430054 -24.20998291 76.06117554 -25.35748291 75.95492554 C-26.55373291 75.72805054 -27.74998291 75.50117554 -28.98248291 75.26742554 C-32.2253024 70.4031963 -31.35437335 64.70928194 -31.35308838 59.01620483 C-31.35746128 56.840685 -31.39378714 54.66719577 -31.43170166 52.49203491 C-31.43757034 51.10597412 -31.44153939 49.71990372 -31.44342041 48.33383179 C-31.45163818 47.07514282 -31.45985596 45.81645386 -31.46832275 44.5196228 C-30.98248291 41.26742554 -30.98248291 41.26742554 -29.12554932 38.84140015 C-26.53746911 36.94058526 -25.12324082 36.91845244 -21.98248291 37.26742554 C-22.00343018 36.70346069 -22.02437744 36.13949585 -22.04595947 35.55844116 C-22.12996792 32.96162304 -22.1814052 30.36509192 -22.23248291 27.76742554 C-22.28275635 26.43711304 -22.28275635 26.43711304 -22.33404541 25.07992554 C-22.44213273 17.7299876 -20.89445261 12.59042873 -16.01763916 7.02523804 C-15.3666626 6.48640991 -14.71568604 5.94758179 -14.04498291 5.39242554 C-13.39658447 4.83812866 -12.74818604 4.28383179 -12.08013916 3.71273804 C-8.19777757 1.03774029 -4.68927265 0.01856702 0 0 Z " fill="#101011" transform="translate(65.98248291015625,-0.267425537109375)"/>
<path d="M0 0 C0.93972656 0.63228516 0.93972656 0.63228516 1.8984375 1.27734375 C3.12433594 2.09912109 3.12433594 2.09912109 4.375 2.9375 C5.18710937 3.48277344 5.99921875 4.02804688 6.8359375 4.58984375 C10.08510875 6.7070835 11.85169837 7.12814397 15.70437622 7.14717102 C17.19308479 7.15790398 17.19308479 7.15790398 18.71186829 7.16885376 C19.80484726 7.17154266 20.89782623 7.17423157 22.02392578 7.17700195 C23.17204239 7.18357315 24.320159 7.19014435 25.50306702 7.19691467 C29.31714945 7.21668623 33.13119241 7.22832002 36.9453125 7.23828125 C38.89689585 7.24439454 38.89689585 7.24439454 40.88790512 7.25063133 C47.06555311 7.26935548 53.24318127 7.28391584 59.42085183 7.2922433 C66.54269619 7.30200256 73.66422865 7.32828487 80.78596318 7.36874419 C86.29521508 7.39896369 91.80437791 7.41371788 97.31371105 7.41702431 C100.60162561 7.41936925 103.88913216 7.430244 107.17697525 7.45348549 C110.85147093 7.47784163 114.52515528 7.47691747 118.19970703 7.4699707 C119.28054062 7.48278076 120.36137421 7.49559082 121.47496033 7.50878906 C129.80560967 7.45148076 135.5844499 5.34629175 142 0 C142.10861833 2.70942393 142.18758577 5.414439 142.25 8.125 C142.28351563 8.88554687 142.31703125 9.64609375 142.3515625 10.4296875 C142.44419988 15.80265531 141.54540302 18.72896692 138 23 C134.77683545 26.31773173 131.59295882 28.84032521 126.82038403 29.13422108 C125.96814408 29.13849456 125.11590414 29.14276804 124.23783875 29.14717102 C122.76797516 29.15790398 122.76797516 29.15790398 121.26841736 29.16885376 C119.65768089 29.17288712 119.65768089 29.17288712 118.0144043 29.17700195 C116.88243622 29.18357315 115.75046814 29.19014435 114.584198 29.19691467 C110.83087094 29.21665742 107.07758389 29.22831169 103.32421875 29.23828125 C102.04364908 29.24235678 100.76307941 29.2464323 99.44370461 29.25063133 C93.36644415 29.26934325 87.28920378 29.28390902 81.21192044 29.2922433 C74.20269527 29.30201508 67.19378595 29.32833551 60.18467206 29.36874419 C54.10901437 29.40256641 48.0334893 29.41439015 41.95774269 29.41844749 C39.3753425 29.42332417 36.79294594 29.43496869 34.21060753 29.45348549 C30.59807432 29.47778186 26.98636887 29.47692888 23.3737793 29.4699707 C22.30602768 29.48278076 21.23827606 29.49559082 20.13816833 29.50878906 C13.01860814 29.45877035 9.46670632 28.44200295 4.35546875 23.3671875 C0.20355768 18.06273924 -0.13235576 14.99517635 -0.0625 8.375 C-0.05798828 7.57320312 -0.05347656 6.77140625 -0.04882812 5.9453125 C-0.03703168 3.96350994 -0.01909605 1.98174567 0 0 Z " fill="#F8F8F8" transform="translate(49,206)"/>
<path d="M0 0 C1.84828982 1.96917144 3.34570691 3.80575439 4.921875 5.96289062 C8.99000053 10.88419099 11.91262322 12.87462206 18.5 13.55273438 C21.33887449 13.67385275 24.159725 13.64747592 27 13.59375 C28.52736626 13.60185745 30.05471729 13.61352352 31.58203125 13.62854004 C34.76713991 13.64612687 37.94818149 13.62089819 41.1328125 13.56445312 C45.18712942 13.49603958 49.23192055 13.53546931 53.28588867 13.60732269 C56.43528201 13.65099423 59.58246842 13.63675466 62.73193359 13.60578918 C64.22445854 13.59786667 65.71719363 13.60731625 67.20947266 13.63554382 C76.46743679 13.78665637 76.46743679 13.78665637 84.21557617 9.25488281 C85.70066636 7.65089712 87.05319152 6.02995856 88.3494873 4.27004242 C90.54546407 1.30066847 91.63495411 0.09621734 95.27294922 -0.8626709 C100.70573899 -0.99641789 105.56072365 -0.27660873 110 3 C114.94689372 8.05214677 117.11860542 10.97005871 117.08789062 18.21875 C117.07951172 19.0128125 117.07113281 19.806875 117.0625 20.625 C117.05798828 21.42679688 117.05347656 22.22859375 117.04882812 23.0546875 C117.03703168 25.03649006 117.01909605 27.01825433 117 29 C116.37351563 28.57847656 115.74703125 28.15695313 115.1015625 27.72265625 C114.28429687 27.17480469 113.46703125 26.62695312 112.625 26.0625 C111.81289062 25.51722656 111.00078125 24.97195312 110.1640625 24.41015625 C106.90379416 22.28568536 105.12459768 21.8707911 101.25765991 21.84609985 C100.25677338 21.83749939 99.25588684 21.82889893 98.22467041 21.82003784 C97.1223407 21.81577789 96.02001099 21.81151794 94.88427734 21.80712891 C93.72640717 21.79895142 92.56853699 21.79077393 91.37557983 21.78234863 C87.5290377 21.75745902 83.68253261 21.74096795 79.8359375 21.7265625 C78.52384937 21.72123882 77.21176125 21.71591515 75.85991287 21.71043015 C70.34397258 21.68879632 64.82803521 21.67006247 59.31206322 21.65880775 C51.41554755 21.64258891 43.51952557 21.60946813 35.62319601 21.55240691 C30.06723801 21.51363295 24.5114116 21.49416603 18.95532191 21.48888719 C15.63936684 21.48524235 12.32405734 21.47079777 9.00822067 21.44078445 C5.3024632 21.40916024 1.59794688 21.40909328 -2.10791016 21.41650391 C-3.19809448 21.40009857 -4.28827881 21.38369324 -5.41149902 21.36679077 C-12.36128837 21.42359111 -16.52976989 22.72939364 -22 27 C-22.99 27.66 -23.98 28.32 -25 29 C-25.92697028 10.8725811 -25.92697028 10.8725811 -21.52734375 5.44921875 C-15.34453481 -0.41733398 -8.35908861 -2.14994115 0 0 Z " fill="#F4F4F4" transform="translate(74,5)"/>
<path d="M0 0 C11.95318045 7.87864232 20.30845405 19.55867711 24.0078125 33.41015625 C26.52016033 47.64117347 23.72865572 61.63798839 16.2109375 73.96875 C14.75944732 75.98185219 13.23219845 77.84673375 11.58984375 79.70703125 C11.00460938 80.38507813 10.419375 81.063125 9.81640625 81.76171875 C0.81896141 91.49364889 -12.01380394 97.11551681 -25.1953125 97.9453125 C-41.61162157 98.37308031 -53.86032438 93.50431838 -66.41015625 82.70703125 C-72.43096137 75.77398293 -76.39071339 68.33750354 -79.41015625 59.70703125 C-79.65636719 59.04445313 -79.90257813 58.381875 -80.15625 57.69921875 C-83.97528785 45.530974 -81.53994606 32.19875881 -76.08984375 20.9921875 C-68.47467145 7.48878089 -56.60118264 -2.52607704 -41.54467773 -6.82568359 C-27.65629883 -9.86609961 -12.0954632 -7.13233196 0 0 Z M-65.30078125 12.90234375 C-74.86202412 25.61525556 -78.09519877 39.02961904 -76.41015625 54.70703125 C-73.75720891 67.23809272 -66.06117926 77.68145459 -55.84375 85.171875 C-43.76676024 92.79026501 -30.74388011 94.55951306 -16.79296875 92.05859375 C-4.22280409 88.53171302 6.46150496 81.48538668 13.12109375 70.0859375 C19.52385081 57.55961337 21.88548468 44.93176791 18.02734375 31.08203125 C13.70188903 18.47119848 5.60342425 7.75568067 -6.41015625 1.70703125 C-27.38951843 -7.16885275 -49.19875867 -4.08117641 -65.30078125 12.90234375 Z " fill="#101010" transform="translate(148.41015625,48.29296875)"/>
<path d="M0 0 C0.33 0 0.66 0 1 0 C1.00054477 0.59892248 1.00108953 1.19784496 1.00165081 1.81491661 C1.01665166 16.4226726 1.05923155 31.03017085 1.13209057 45.63774681 C1.16666821 52.70205475 1.19208654 59.76616903 1.19555664 66.83056641 C1.19893351 73.65184526 1.22834556 80.47262182 1.27343178 87.29375076 C1.2863922 89.89233183 1.29071967 92.49097116 1.28615379 95.08958054 C1.28123792 98.73782234 1.30738816 102.38464747 1.34057617 106.03271484 C1.33195053 107.10014923 1.32332489 108.16758362 1.31443787 109.2673645 C1.43227457 117.02642218 3.17543504 123.83172836 8.54869366 129.68787193 C10.93144258 131.76576343 12.99432031 132.99810677 16 134 C16.33 135.65 16.66 137.3 17 139 C11.07639384 138.43584703 7.18653966 136.18653966 3 132 C2.67 135.96 2.34 139.92 2 144 C-0.475 144.99 -0.475 144.99 -3 146 C-3 112.01 -3 78.02 -3 43 C-5.31 42.67 -7.62 42.34 -10 42 C-13.24281949 37.13577076 -12.37189044 31.4418564 -12.37060547 25.7487793 C-12.37497837 23.57325946 -12.41130423 21.39977023 -12.44921875 19.22460938 C-12.45508743 17.83854859 -12.45905648 16.45247819 -12.4609375 15.06640625 C-12.46915527 13.80771729 -12.47737305 12.54902832 -12.48583984 11.25219727 C-12 8 -12 8 -10.17431641 5.57397461 C-7.33171256 3.51623073 -5.42869488 3.68830047 -2 4 C-2 3.34 -2 2.68 -2 2 C-1.34 2 -0.68 2 0 2 C0 1.34 0 0.68 0 0 Z " fill="#0E0E0F" transform="translate(47,75)"/>
<path d="M0 0 C0.24937222 11.90059664 -0.05706198 23.74133369 -0.75 35.625 C-0.81171387 36.91172607 -0.87342773 38.19845215 -0.93701172 39.52416992 C-1.0145166 40.72533447 -1.09202148 41.92649902 -1.171875 43.1640625 C-1.2347168 44.24123535 -1.29755859 45.3184082 -1.36230469 46.42822266 C-2 49 -2 49 -4.05175781 50.36474609 C-4.69467773 50.57437988 -5.33759766 50.78401367 -6 51 C-7.46495337 48.46195322 -8.92204322 45.91990283 -10.375 43.375 C-10.7875 42.66214844 -11.2 41.94929688 -11.625 41.21484375 C-13.89491074 37.22419422 -15.72465011 33.44270238 -17 29 C-17.72469482 29.16298584 -18.44938965 29.32597168 -19.19604492 29.49389648 C-21.83325585 29.9699033 -24.18993341 30.11490366 -26.86328125 30.09765625 C-28.19262695 30.09282227 -28.19262695 30.09282227 -29.54882812 30.08789062 C-30.46083984 30.07951172 -31.37285156 30.07113281 -32.3125 30.0625 C-33.24384766 30.05798828 -34.17519531 30.05347656 -35.13476562 30.04882812 C-37.42324373 30.03709234 -39.71158808 30.02067363 -42 30 C-41.67061179 27.10666038 -41.14199785 26.1269853 -38.93554688 24.15380859 C-38.03900391 23.53328613 -37.14246094 22.91276367 -36.21875 22.2734375 C-35.22230469 21.57831055 -34.22585937 20.88318359 -33.19921875 20.16699219 C-32.14347656 19.45188477 -31.08773437 18.73677734 -30 18 C-28.97519531 17.30293945 -27.95039062 16.60587891 -26.89453125 15.88769531 C-23.77353141 13.78385947 -20.63949555 11.70111803 -17.5 9.625 C-16.43007812 8.91472656 -15.36015625 8.20445313 -14.2578125 7.47265625 C-12.29563844 6.17030647 -10.33282858 4.86891366 -8.36914062 3.56884766 C-2.97976969 0 -2.97976969 0 0 0 Z " fill="#0C0C0D" transform="translate(136,68)"/>
<path d="M0 0 C25.74 0 51.48 0 78 0 C75.00322575 5.9935485 75.00322575 5.9935485 73 8 C70.09133911 8.52139282 70.09133911 8.52139282 66.49658203 8.54931641 C65.84093262 8.55953827 65.1852832 8.56976013 64.50976562 8.58029175 C62.34207653 8.60809441 60.17565871 8.60617013 58.0078125 8.6015625 C56.49949674 8.60933707 54.99118535 8.61800655 53.48287964 8.62753296 C50.32031062 8.6424602 47.15818807 8.64187439 43.99560547 8.63134766 C39.94753075 8.6197678 35.90128917 8.65358817 31.85351753 8.700037 C28.73755249 8.72954324 25.62202711 8.73125107 22.50594711 8.72501755 C21.01402027 8.72604282 19.52206845 8.73649741 18.03027725 8.75664139 C6.397028 8.89442523 6.397028 8.89442523 2.94720459 6.68572998 C1.11443072 4.5843207 0 2.83799816 0 0 Z " fill="#FDFDFD" transform="translate(81,5)"/>
<path d="M0 0 C0.7115625 -0.01546875 1.423125 -0.0309375 2.15625 -0.046875 C5.54093252 -0.02161618 7.65221767 0.26227537 10.46875 2.1875 C12.33076886 4.99952849 12.53686423 6.6453554 12.5 10 C12.5103125 10.9384375 12.520625 11.876875 12.53125 12.84375 C11.8279023 16.36048849 10.96319126 17.47452749 8 19.5 C5.16934716 19.90100915 2.81653341 20.06122899 0 20 C-0.7115625 20.01546875 -1.423125 20.0309375 -2.15625 20.046875 C-5.54093252 20.02161618 -7.65221767 19.73772463 -10.46875 17.8125 C-12.33076886 15.00047151 -12.53686423 13.3546446 -12.5 10 C-12.5103125 9.0615625 -12.520625 8.123125 -12.53125 7.15625 C-11.14251723 0.21258615 -6.1946739 -0.13466682 0 0 Z " fill="#131313" transform="translate(71,154.5)"/>
<path d="M0 0 C0.7115625 -0.01546875 1.423125 -0.0309375 2.15625 -0.046875 C5.54093252 -0.02161618 7.65221767 0.26227537 10.46875 2.1875 C12.33076886 4.99952849 12.53686423 6.6453554 12.5 10 C12.5103125 10.9384375 12.520625 11.876875 12.53125 12.84375 C11.8279023 16.36048849 10.96319126 17.47452749 8 19.5 C5.16934716 19.90100915 2.81653341 20.06122899 0 20 C-0.7115625 20.01546875 -1.423125 20.0309375 -2.15625 20.046875 C-5.54093252 20.02161618 -7.65221767 19.73772463 -10.46875 17.8125 C-12.33076886 15.00047151 -12.53686423 13.3546446 -12.5 10 C-12.5103125 9.0615625 -12.520625 8.123125 -12.53125 7.15625 C-11.14251723 0.21258615 -6.1946739 -0.13466682 0 0 Z " fill="#151515" transform="translate(169,154.5)"/>
<path d="M0 0 C1.15822266 -0.01740234 1.15822266 -0.01740234 2.33984375 -0.03515625 C8.00992345 -0.00567577 8.00992345 -0.00567577 10.21923828 1.71044922 C12.22105085 4.3121187 11.89676782 6.65336232 11.875 9.875 C11.88273437 11.0196875 11.89046875 12.164375 11.8984375 13.34375 C11.4559396 16.7102046 11.09849912 17.35656913 8.5 19.375 C5.57742357 19.6731028 2.91654217 19.79382117 0 19.75 C-1.15822266 19.76740234 -1.15822266 19.76740234 -2.33984375 19.78515625 C-8.00992345 19.75567577 -8.00992345 19.75567577 -10.21923828 18.03955078 C-12.22105085 15.4378813 -11.89676782 13.09663768 -11.875 9.875 C-11.88660156 8.15796875 -11.88660156 8.15796875 -11.8984375 6.40625 C-10.98027108 -0.57901613 -5.99256105 -0.09003848 0 0 Z " fill="#111111" transform="translate(103.5,154.625)"/>
<path d="M0 0 C0.71607422 -0.01160156 1.43214844 -0.02320313 2.16992188 -0.03515625 C5.25150471 -0.01802048 7.71746432 0.21935299 10.5390625 1.4921875 C12.77707311 4.25813907 12.55929329 6.36483738 12.5 9.875 C12.49871094 11.0196875 12.49742187 12.164375 12.49609375 13.34375 C12.01679549 16.69451985 11.65241019 17.36066632 9.0625 19.375 C6.13992357 19.6731028 3.47904217 19.79382117 0.5625 19.75 C-0.59572266 19.76740234 -0.59572266 19.76740234 -1.77734375 19.78515625 C-7.44742345 19.75567577 -7.44742345 19.75567577 -9.65673828 18.03955078 C-11.65855085 15.4378813 -11.33426782 13.09663768 -11.3125 9.875 C-11.32410156 8.15796875 -11.32410156 8.15796875 -11.3359375 6.40625 C-10.9375 3.375 -10.9375 3.375 -9.91015625 1.4921875 C-6.76040025 -0.29163471 -3.51869125 -0.05670228 0 0 Z " fill="#101010" transform="translate(135.9375,154.625)"/>
<path d="M0 0 C0.78890625 -0.00386719 1.5778125 -0.00773438 2.390625 -0.01171875 C3.21046875 -0.00011719 4.0303125 0.01148438 4.875 0.0234375 C6.10476562 0.00603516 6.10476562 0.00603516 7.359375 -0.01171875 C8.54273438 -0.00591797 8.54273438 -0.00591797 9.75 0 C10.46929687 0.00338379 11.18859375 0.00676758 11.9296875 0.01025391 C14.4394298 0.51106845 15.33163721 1.38760528 16.875 3.3984375 C17.2734375 6.2109375 17.2734375 6.2109375 17.25 9.3984375 C17.25773437 10.4503125 17.26546875 11.5021875 17.2734375 12.5859375 C16.81931245 15.79152607 16.36941285 16.45646436 13.875 18.3984375 C11.9296875 18.78662109 11.9296875 18.78662109 9.75 18.796875 C8.96109375 18.80074219 8.1721875 18.80460937 7.359375 18.80859375 C6.53953125 18.79699219 5.7196875 18.78539062 4.875 18.7734375 C3.64523438 18.79083984 3.64523438 18.79083984 2.390625 18.80859375 C1.20726562 18.80279297 1.20726562 18.80279297 0 18.796875 C-0.71929687 18.79349121 -1.43859375 18.79010742 -2.1796875 18.78662109 C-4.6894298 18.28580655 -5.58163721 17.40926972 -7.125 15.3984375 C-7.5234375 12.5859375 -7.5234375 12.5859375 -7.5 9.3984375 C-7.50773438 8.3465625 -7.51546875 7.2946875 -7.5234375 6.2109375 C-6.85710232 1.50739503 -4.61717345 0.02172057 0 0 Z " fill="#0D0D0E" transform="translate(164.125,180.6015625)"/>
<path d="M0 0 C0.78890625 -0.00386719 1.5778125 -0.00773438 2.390625 -0.01171875 C3.21046875 -0.00011719 4.0303125 0.01148438 4.875 0.0234375 C6.10476562 0.00603516 6.10476562 0.00603516 7.359375 -0.01171875 C8.54273437 -0.00591797 8.54273437 -0.00591797 9.75 0 C10.46929687 0.00338379 11.18859375 0.00676758 11.9296875 0.01025391 C14.43314512 0.50981435 15.32725203 1.401276 16.875 3.3984375 C17.2734375 5.95703125 17.2734375 5.95703125 17.25 8.8359375 C17.25773437 9.78339844 17.26546875 10.73085937 17.2734375 11.70703125 C16.78647802 14.9963948 16.46391862 16.26580339 13.875 18.3984375 C10.86438722 18.9680445 7.92945002 18.91037771 4.875 18.8359375 C4.05515625 18.84302734 3.2353125 18.85011719 2.390625 18.85742188 C-3.61824684 18.79360216 -3.61824684 18.79360216 -5.85791016 17.04711914 C-7.76726722 14.56274761 -7.52268313 12.48334322 -7.5 9.3984375 C-7.50773437 8.3465625 -7.51546875 7.2946875 -7.5234375 6.2109375 C-6.85710232 1.50739503 -4.61717345 0.02172057 0 0 Z " fill="#0A0A0B" transform="translate(66.125,180.6015625)"/>
<path d="M0 0 C1.24233398 0.00483398 1.24233398 0.00483398 2.50976562 0.00976562 C3.33412109 -0.00634766 4.15847656 -0.02246094 5.0078125 -0.0390625 C5.80123047 -0.03970703 6.59464844 -0.04035156 7.41210938 -0.04101562 C8.137771 -0.04399658 8.86343262 -0.04697754 9.61108398 -0.05004883 C12.14105825 0.4302463 13.02278606 1.2972654 14.57226562 3.32226562 C14.97070312 6.13476562 14.97070312 6.13476562 14.94726562 9.32226562 C14.955 10.37414062 14.96273437 11.42601562 14.97070312 12.50976562 C14.51663919 15.71492281 14.06968758 16.38357462 11.57226562 18.32226562 C9.61108398 18.69458008 9.61108398 18.69458008 7.41210938 18.68554688 C6.61869141 18.68490234 5.82527344 18.68425781 5.0078125 18.68359375 C4.18345703 18.66748047 3.35910156 18.65136719 2.50976562 18.63476562 C1.68154297 18.63798828 0.85332031 18.64121094 0 18.64453125 C-6.16060845 18.58939155 -6.16060845 18.58939155 -8.42773438 16.32226562 C-8.69335938 13.13476562 -8.69335938 13.13476562 -8.67773438 9.32226562 C-8.68289062 8.06414062 -8.68804687 6.80601562 -8.69335938 5.50976562 C-8.19365634 -0.48667075 -5.01926057 0.04492422 0 0 Z " fill="#080809" transform="translate(133.427734375,180.677734375)"/>
<path d="M0 0 C1.19012695 0.0009668 1.19012695 0.0009668 2.40429688 0.00195312 C3.22865234 0.01806641 4.05300781 0.03417969 4.90234375 0.05078125 C5.73056641 0.04755859 6.55878906 0.04433594 7.41210938 0.04101562 C13.57271783 0.09615533 13.57271783 0.09615533 15.83984375 2.36328125 C16.10546875 5.55078125 16.10546875 5.55078125 16.08984375 9.36328125 C16.095 10.62140625 16.10015625 11.87953125 16.10546875 13.17578125 C15.83984375 16.36328125 15.83984375 16.36328125 13.83984375 18.36328125 C10.88132266 18.80688197 7.89035924 18.68740777 4.90234375 18.67578125 C4.07798828 18.69189453 3.25363281 18.70800781 2.40429688 18.72460938 C1.61087891 18.72525391 0.81746094 18.72589844 0 18.7265625 C-0.72566162 18.72954346 -1.45132324 18.73252441 -2.19897461 18.7355957 C-4.72894888 18.25530058 -5.61067668 17.38828147 -7.16015625 15.36328125 C-7.55859375 12.55078125 -7.55859375 12.55078125 -7.53515625 9.36328125 C-7.54289062 8.31140625 -7.550625 7.25953125 -7.55859375 6.17578125 C-6.88828578 1.44419561 -4.63932428 -0.01905795 0 0 Z " fill="#09090A" transform="translate(99.16015625,180.63671875)"/>
<path d="M0 0 C21.78 0 43.56 0 66 0 C66.495 2.475 66.495 2.475 67 5 C44.56 5 22.12 5 -1 5 C-0.67 3.35 -0.34 1.7 0 0 Z " fill="#161617" transform="translate(87,222)"/>
<path d="M0 0 C0.14809693 10.38324014 -0.29798179 20.64523146 -1 31 C-1.66 31 -2.32 31 -3 31 C-4.00484204 29.04414675 -5.00373805 27.08523763 -6 25.125 C-6.556875 24.03445312 -7.11375 22.94390625 -7.6875 21.8203125 C-9 19 -9 19 -9 17 C-14.28 17 -19.56 17 -25 17 C-21.73202826 13.73202826 -19.004325 11.53682173 -15.1875 9.0625 C-11.69019554 6.77793603 -8.23464492 4.48260077 -4.875 2 C-2 0 -2 0 0 0 Z " fill="#F2F2F2" transform="translate(131,76)"/>
<path d="M0 0 C0.66 0 1.32 0 2 0 C2.33 0.99 2.66 1.98 3 3 C3.99 3.33 4.98 3.66 6 4 C5.41965446 16.67243275 4.77995258 29.33821665 4 42 C2.68 42.66 1.36 43.32 0 44 C-1.43930464 41.45934066 -2.87648839 38.91751978 -4.3125 36.375 C-4.91868164 35.30572266 -4.91868164 35.30572266 -5.53710938 34.21484375 C-12 22.76028963 -12 22.76028963 -12 20 C-11.01 20 -10.02 20 -9 20 C-8.67 19.34 -8.34 18.68 -8 18 C-6.9923048 19.7664657 -5.99408286 21.53833823 -5 23.3125 C-4.443125 24.29863281 -3.88625 25.28476563 -3.3125 26.30078125 C-2 29 -2 29 -2 32 C-1.34 32 -0.68 32 0 32 C0 21.44 0 10.88 0 0 Z " fill="#131313" transform="translate(130,75)"/>
<path d="M0 0 C2.89059949 0.5419874 5.64484905 1.19171188 8.46875 2.03125 C13.79313574 3.3708791 19.04229092 3.21811052 24.5 3.125 C25.51320313 3.11597656 26.52640625 3.10695312 27.5703125 3.09765625 C30.04712801 3.07429007 32.52343379 3.04153168 35 3 C34.67 3.99 34.34 4.98 34 6 C34.66 6.33 35.32 6.66 36 7 C30.88665595 8.67102747 26.21095261 9.38487936 20.8125 9.375 C20.07652588 9.37628906 19.34055176 9.37757813 18.58227539 9.37890625 C11.91465118 9.25136556 6.12588643 7.64392786 0 5 C0 3.35 0 1.7 0 0 Z " fill="#161616" transform="translate(98,137)"/>
<path d="M0 0 C4.62 0 9.24 0 14 0 C14 3.3 14 6.6 14 10 C9.38 10 4.76 10 0 10 C0 6.7 0 3.4 0 0 Z " fill="#E8E8E8" transform="translate(162,185)"/>
<path d="M0 0 C4.62 0 9.24 0 14 0 C14 3.3 14 6.6 14 10 C9.38 10 4.76 10 0 10 C0 6.7 0 3.4 0 0 Z " fill="#E7E7E7" transform="translate(64,185)"/>
<path d="M0 0 C1.79244141 0.01740234 1.79244141 0.01740234 3.62109375 0.03515625 C5.41740234 0.04869141 5.41740234 0.04869141 7.25 0.0625 C8.17683594 0.07410156 9.10367188 0.08570313 10.05859375 0.09765625 C10.05859375 3.39765625 10.05859375 6.69765625 10.05859375 10.09765625 C5.43859375 10.09765625 0.81859375 10.09765625 -3.94140625 10.09765625 C-4.0390625 3.1640625 -4.0390625 3.1640625 -3.94140625 1.09765625 C-2.94140625 0.09765625 -2.94140625 0.09765625 0 0 Z " fill="#E5E5E5" transform="translate(132.94140625,184.90234375)"/>
<path d="M0 0 C2.14576637 -0.02685938 4.29162645 -0.04633088 6.4375 -0.0625 C7.63246094 -0.07410156 8.82742187 -0.08570313 10.05859375 -0.09765625 C13 0 13 0 14 1 C14.1328125 2.8125 14.1328125 2.8125 14.125 5 C14.12757812 5.721875 14.13015625 6.44375 14.1328125 7.1875 C14 9 14 9 13 10 C10.81360547 10.07258946 8.62499611 10.08373783 6.4375 10.0625 C4.64119141 10.04896484 4.64119141 10.04896484 2.80859375 10.03515625 C1.88175781 10.02355469 0.95492187 10.01195312 0 10 C0 6.7 0 3.4 0 0 Z " fill="#E6E6E6" transform="translate(97,185)"/>
<path d="M0 0 C4.62 0 9.24 0 14 0 C14 2.97 14 5.94 14 9 C9.38 9 4.76 9 0 9 C0 6.03 0 3.06 0 0 Z " fill="#F9F9F9" transform="translate(162,160)"/>
<path d="M0 0 C4.62 0 9.24 0 14 0 C14 2.97 14 5.94 14 9 C9.38 9 4.76 9 0 9 C0 6.03 0 3.06 0 0 Z " fill="#F5F5F5" transform="translate(129,160)"/>
<path d="M0 0 C4.62 0 9.24 0 14 0 C14 2.97 14 5.94 14 9 C9.38 9 4.76 9 0 9 C0 6.03 0 3.06 0 0 Z " fill="#F4F4F4" transform="translate(97,160)"/>
<path d="M0 0 C4.62 0 9.24 0 14 0 C14 2.97 14 5.94 14 9 C9.38 9 4.76 9 0 9 C0 6.03 0 3.06 0 0 Z " fill="#F7F7F7" transform="translate(64,160)"/>
<path d="M0 0 C0.99 0 1.98 0 3 0 C3 9.9 3 19.8 3 30 C1.68 30 0.36 30 -1 30 C-1.02465746 25.8882744 -1.04283959 21.77657722 -1.05493164 17.66479492 C-1.0599708 16.26504772 -1.06680216 14.8653058 -1.07543945 13.46557617 C-1.0875232 11.45754223 -1.09269807 9.44947043 -1.09765625 7.44140625 C-1.10289307 6.23170166 -1.10812988 5.02199707 -1.11352539 3.77563477 C-1 1 -1 1 0 0 Z " fill="#FAFAFA" transform="translate(41,83)"/>
<path d="M0 0 C1.32 0 2.64 0 4 0 C4 9.9 4 19.8 4 30 C2.68 29.67 1.36 29.34 0 29 C0 19.43 0 9.86 0 0 Z " fill="#FAFAFA" transform="translate(40,42)"/>
<path d="M0 0 C1.32 0 2.64 0 4 0 C4 9.57 4 19.14 4 29 C2.68 29 1.36 29 0 29 C0 19.43 0 9.86 0 0 Z " fill="#FDFDFD" transform="translate(196,68)"/>
<path d="M0 0 C1.98 0.495 1.98 0.495 4 1 C4 4.3 4 7.6 4 11 C2.35 11.33 0.7 11.66 -1 12 C-1.02687279 10.18757948 -1.04633715 8.37504767 -1.0625 6.5625 C-1.07410156 5.55316406 -1.08570313 4.54382813 -1.09765625 3.50390625 C-1 1 -1 1 0 0 Z " fill="#202020" transform="translate(159,87)"/>
<path d="M0 0 C1.98 0.495 1.98 0.495 4 1 C4 4.63 4 8.26 4 12 C2.35 11.67 0.7 11.34 -1 11 C-1.02688151 9.35425434 -1.04634123 7.70838587 -1.0625 6.0625 C-1.07410156 5.14597656 -1.08570312 4.22945313 -1.09765625 3.28515625 C-1 1 -1 1 0 0 Z " fill="#181819" transform="translate(78,87)"/>
<path d="M0 0 C1.37478516 0.01740234 1.37478516 0.01740234 2.77734375 0.03515625 C3.69644531 0.04417969 4.61554688 0.05320313 5.5625 0.0625 C6.27277344 0.07410156 6.98304687 0.08570313 7.71484375 0.09765625 C8.27734375 2.03515625 8.27734375 2.03515625 8.71484375 4.09765625 C7.71484375 5.09765625 7.71484375 5.09765625 5.4296875 5.1953125 C4.05490234 5.17791016 4.05490234 5.17791016 2.65234375 5.16015625 C1.73324219 5.15113281 0.81414062 5.14210937 -0.1328125 5.1328125 C-0.84308594 5.12121094 -1.55335937 5.10960937 -2.28515625 5.09765625 C-2.84765625 3.16015625 -2.84765625 3.16015625 -3.28515625 1.09765625 C-2.28515625 0.09765625 -2.28515625 0.09765625 0 0 Z " fill="#171717" transform="translate(117.28515625,130.90234375)"/>
<path d="M0 0 C3.91211733 1.15585285 6.8745041 2.35534962 10 5 C9.67 6.32 9.34 7.64 9 9 C5.00544473 8.38545304 2.25533664 6.29353263 -1 4 C-0.67 2.68 -0.34 1.36 0 0 Z " fill="#191919" transform="translate(136,54)"/>
<path d="M0 0 C-0.125 2.25 -0.125 2.25 -1 5 C-3.8125 7.375 -3.8125 7.375 -7 9 C-9.375 8.75 -9.375 8.75 -11 8 C-10.9375 6.25 -10.9375 6.25 -10 4 C-6.7838181 1.55272534 -4.07605096 0 0 0 Z " fill="#181818" transform="translate(105,54)"/>
<path d="M0 0 C0.515625 0.2475 1.03125 0.495 1.5625 0.75 C1.5625 1.74 1.5625 2.73 1.5625 3.75 C-4.71442308 7.81153846 -4.71442308 7.81153846 -8.375 7.5 C-9.055625 7.2525 -9.73625 7.005 -10.4375 6.75 C-9.15564628 2.90443885 -7.65170223 2.32931973 -4.2265625 0.46875 C-2.4375 -0.25 -2.4375 -0.25 0 0 Z " fill="#131313" transform="translate(144.4375,124.25)"/>
<path d="M0 0 C2.3125 0.125 2.3125 0.125 5 1 C7.36101949 4.66365093 8 6.59781468 8 11 C6.25 10.875 6.25 10.875 4 10 C1.06644827 6.33306034 0 4.76869466 0 0 Z " fill="#101010" transform="translate(81,108)"/>
<path d="M0 0 C3.93370357 0.56195765 6.83175607 1.55592611 10 4 C10 5.32 10 6.64 10 8 C5.6109185 7.48964169 2.66291938 6.47785723 -1 4 C-0.67 2.68 -0.34 1.36 0 0 Z " fill="#101010" transform="translate(95,124)"/>
<path d="M0 0 C1.32 0.33 2.64 0.66 4 1 C3.49942848 5.38000076 2.06806466 7.84169815 -1 11 C-1.99 11 -2.98 11 -4 11 C-3.48964169 6.6109185 -2.47785723 3.66291938 0 0 Z " fill="#0E0E0E" transform="translate(155,108)"/>
<path d="M0 0 C1.32 0 2.64 0 4 0 C3.46884894 4.51478398 1.63379708 7.34666857 -1 11 C-1.99 10.67 -2.98 10.34 -4 10 C-3.43804235 6.06629643 -2.44407389 3.16824393 0 0 Z " fill="#101010" transform="translate(85,68)"/>
<path d="M0 0 C2.3125 0.125 2.3125 0.125 5 1 C6.96398404 3.94597606 8.15784809 5.80035455 7.6875 9.375 C7.460625 9.91125 7.23375 10.4475 7 11 C6.01 11 5.02 11 4 11 C0 4.5 0 4.5 0 0 Z " fill="#121212" transform="translate(151,68)"/>
<path d="M0 0 C3.96 0 7.92 0 12 0 C12 1.32 12 2.64 12 4 C8.04 4 4.08 4 0 4 C0 2.68 0 1.36 0 0 Z " fill="#090909" transform="translate(114,51)"/>
</svg>
